<svg width="23" height="23" viewBox="0 0 23 23" fill="none" xmlns="http://www.w3.org/2000/svg">
<path fill-rule="evenodd" clip-rule="evenodd" d="M6.5205 0H16.491C20.3895 0 23 2.737 23 6.808V16.2046C23 20.2641 20.3895 23 16.491 23H6.5205C2.622 23 0 20.2641 0 16.2046V6.808C0 2.737 2.622 0 6.5205 0ZM14.9616 14.9499C15.3526 14.56 15.3526 13.9275 14.9616 13.5365L12.9146 11.4895L14.9616 9.44137C15.3526 9.05152 15.3526 8.40752 14.9616 8.01652C14.5706 7.62437 13.9381 7.62437 13.5356 8.01652L11.5001 10.0624L9.45311 8.01652C9.05061 7.62437 8.41811 7.62437 8.02711 8.01652C7.63611 8.40752 7.63611 9.05152 8.02711 9.44137L10.0741 11.4895L8.02711 13.525C7.63611 13.9275 7.63611 14.56 8.02711 14.9499C8.22261 15.1454 8.48711 15.25 8.74011 15.25C9.00461 15.25 9.25761 15.1454 9.45311 14.9499L11.5001 12.9155L13.5471 14.9499C13.7426 15.158 13.9956 15.25 14.2486 15.25C14.5131 15.25 14.7661 15.1454 14.9616 14.9499Z" fill="white"/>
</svg>
