<svg width="339" height="334" viewBox="0 0 339 334" fill="none" xmlns="http://www.w3.org/2000/svg">
<path d="M307.999 3.93403e-06C324.568 3.93403e-06 338 13.4315 338 30V304C338 320.569 324.568 334 307.999 334H31.0003C14.4317 334 0.999314 320.569 0.999314 304V30C0.999319 13.4315 14.4318 3.93403e-06 31.0003 3.93403e-06H307.999Z" fill="#1C5FFF"/>
<path d="M170 3.93403e-06C170 5.90949 168.836 11.7611 166.574 17.2208C164.313 22.6804 160.998 27.6412 156.82 31.8198C152.641 35.9984 147.68 39.3131 142.221 41.5746C136.761 43.836 130.909 45 125 45C119.09 45 113.239 43.836 107.779 41.5746C102.319 39.3131 97.3587 35.9984 93.1801 31.8198C89.0014 27.6412 85.6867 22.6804 83.4253 17.2208C81.1638 11.7611 79.9999 5.90948 79.9999 0L170 3.93403e-06Z" fill="white" fill-opacity="0.1"/>
<path d="M338.363 178.181C332.453 178.205 326.597 177.064 321.128 174.825C315.659 172.586 310.685 169.291 306.49 165.129C302.294 160.967 298.96 156.02 296.676 150.57C294.393 145.119 293.205 139.272 293.181 133.363C293.158 127.453 294.298 121.597 296.537 116.128C298.777 110.66 302.071 105.686 306.233 101.49C310.395 97.2947 315.342 93.96 320.793 91.6765C326.243 89.393 332.09 88.2055 337.999 88.1816L338.363 178.181Z" fill="white" fill-opacity="0.1"/>
<path d="M248 36C248 47.0457 239.046 56 228 56C216.954 56 208 47.0457 208 36C208 24.9543 216.954 16 228 16C239.046 16 248 24.9543 248 36Z" fill="white" fill-opacity="0.1"/>
<path d="M0.908203 154C6.81768 154.012 12.6717 152.86 18.1359 150.61C23.6002 148.359 28.5677 145.055 32.7548 140.885C36.942 136.714 40.2667 131.76 42.5393 126.305C44.8119 120.85 45.9878 115.001 45.9998 109.092C46.0119 103.182 44.8598 97.3283 42.6095 91.864C40.3592 86.3998 37.0546 81.4323 32.8845 77.2451C28.7144 73.058 23.7604 69.7332 18.3054 67.4606C12.8504 65.188 7.00112 64.0121 1.09164 64.0001L0.908203 154Z" fill="white" fill-opacity="0.1"/>
<path d="M228 143C228 175.033 202.032 201 170 201C137.967 201 112 175.033 112 143C112 110.967 137.967 85 170 85C202.032 85 228 110.967 228 143Z" fill="white"/>
<path d="M240 143.5C240 181.884 208.884 213 170.5 213C132.116 213 101 181.884 101 143.5C101 105.116 132.116 74 170.5 74C208.884 74 240 105.116 240 143.5Z" fill="white" fill-opacity="0.3"/>
<path d="M258 143.5C258 191.825 218.825 231 170.5 231C122.175 231 82.9999 191.825 82.9999 143.5C82.9999 95.1751 122.175 56 170.5 56C218.825 56 258 95.1751 258 143.5Z" fill="white" fill-opacity="0.25"/>
<path d="M143.781 131.152C145.807 131.152 147.503 131.344 148.869 131.728C150.255 132.091 151.29 132.699 151.973 133.552C152.677 134.384 153.029 135.515 153.029 136.944C153.029 137.797 152.89 138.576 152.613 139.28C152.335 139.984 151.93 140.56 151.397 141.008C150.885 141.456 150.255 141.744 149.509 141.872V142.032C150.277 142.181 150.97 142.448 151.589 142.832C152.207 143.216 152.698 143.771 153.061 144.496C153.423 145.221 153.605 146.181 153.605 147.376C153.605 148.763 153.263 149.957 152.581 150.96C151.919 151.941 150.959 152.699 149.701 153.232C148.442 153.744 146.949 154 145.221 154H136.677V131.152H143.781ZM144.325 140.208C145.733 140.208 146.703 139.984 147.237 139.536C147.791 139.088 148.069 138.437 148.069 137.584C148.069 136.709 147.749 136.08 147.109 135.696C146.469 135.312 145.455 135.12 144.069 135.12H141.509V140.208H144.325ZM141.509 144.048V150H144.677C146.127 150 147.141 149.723 147.717 149.168C148.293 148.592 148.581 147.835 148.581 146.896C148.581 146.32 148.453 145.819 148.197 145.392C147.962 144.965 147.546 144.635 146.949 144.4C146.351 144.165 145.541 144.048 144.517 144.048H141.509Z" fill="#1C5FFF"/>
<path d="M172.161 154L170.497 148.56H162.177L160.513 154H155.297L163.361 131.056H169.281L177.377 154H172.161ZM167.681 139.184C167.574 138.821 167.435 138.363 167.265 137.808C167.094 137.253 166.923 136.688 166.753 136.112C166.582 135.536 166.443 135.035 166.337 134.608C166.23 135.035 166.081 135.568 165.889 136.208C165.718 136.827 165.547 137.424 165.377 138C165.227 138.555 165.11 138.949 165.025 139.184L163.393 144.496H169.345L167.681 139.184Z" fill="#1C5FFF"/>
<path d="M191.535 147.312C190.895 148.763 190.212 150.021 189.487 151.088C188.783 152.133 187.876 152.933 186.767 153.488C185.657 154.043 184.207 154.32 182.415 154.32C181.86 154.32 181.252 154.277 180.591 154.192C179.929 154.107 179.321 153.989 178.767 153.84V149.68C179.279 149.893 179.844 150.043 180.463 150.128C181.081 150.213 181.657 150.256 182.191 150.256C182.895 150.256 183.46 150.139 183.887 149.904C184.335 149.669 184.687 149.349 184.943 148.944C185.22 148.517 185.444 148.059 185.615 147.568L177.711 131.152H182.831L187.087 141.04C187.193 141.253 187.321 141.531 187.471 141.872C187.62 142.213 187.769 142.565 187.919 142.928C188.068 143.291 188.185 143.611 188.271 143.888H188.431C188.516 143.632 188.623 143.323 188.751 142.96C188.9 142.576 189.049 142.192 189.199 141.808C189.369 141.403 189.519 141.051 189.647 140.752L193.615 131.152H198.607L191.535 147.312Z" fill="#1C5FFF"/>
<path d="M201.073 146.768L200.593 131.6H205.233L204.753 146.768H201.073ZM202.929 154.16C202.14 154.16 201.489 153.925 200.977 153.456C200.487 152.965 200.241 152.379 200.241 151.696C200.241 150.971 200.487 150.373 200.977 149.904C201.489 149.413 202.14 149.168 202.929 149.168C203.697 149.168 204.327 149.413 204.817 149.904C205.308 150.373 205.553 150.971 205.553 151.696C205.553 152.379 205.308 152.965 204.817 153.456C204.327 153.925 203.697 154.16 202.929 154.16Z" fill="#1C5FFF"/>
</svg>
