<svg width="29" height="28" viewBox="0 0 29 28" fill="none" xmlns="http://www.w3.org/2000/svg">
<path fill-rule="evenodd" clip-rule="evenodd" d="M2.97812 9.12645C2.36426 10.2331 2.36426 11.568 2.36426 14.2378V16.0124C2.36426 20.5634 2.36426 22.8389 3.74944 24.2527C5.13463 25.6666 7.36403 25.6666 11.8229 25.6666H16.5522C21.011 25.6666 23.2405 25.6666 24.6256 24.2527C26.0108 22.8389 26.0108 20.5634 26.0108 16.0124V14.2378C26.0108 11.568 26.0108 10.2331 25.3969 9.12645C24.7831 8.01983 23.6616 7.33301 21.4186 5.95939L19.054 4.51127C16.6829 3.05926 15.4974 2.33325 14.1875 2.33325C12.8776 2.33325 11.6921 3.05926 9.3211 4.51127L6.95645 5.9594C4.71348 7.33301 3.59199 8.01983 2.97812 9.12645ZM10.6405 20.1249C10.1508 20.1249 9.7538 20.5167 9.7538 20.9999C9.7538 21.4832 10.1508 21.8749 10.6405 21.8749H17.7345C18.2242 21.8749 18.6212 21.4832 18.6212 20.9999C18.6212 20.5167 18.2242 20.1249 17.7345 20.1249H10.6405Z" fill="white"/>
</svg>
