<svg width="375" height="378" viewBox="0 0 375 378" fill="none" xmlns="http://www.w3.org/2000/svg">
<path fill-rule="evenodd" clip-rule="evenodd" d="M214.709 312.701C251.02 312.673 282.864 285.637 264.94 248.965C247.016 212.292 313.51 213.425 333.022 188.054C356.818 157.114 349.817 25.8598 196.963 106.001C172.478 118.839 109.548 92.8824 88.6902 105.802C64.139 121.01 29.6045 152.139 64.1882 183.972C81.2235 199.652 20.2239 240.432 46.983 276.898C73.0931 312.478 91.3499 278.526 131.066 285.756C170.781 292.987 187.741 312.722 214.709 312.701Z" fill="#1C5FFF"/>
<path d="M172.514 248.91C172.514 248.91 180.871 244.97 183.99 242.232C187.11 239.493 190.985 232.692 190.985 232.692C190.985 232.692 233.634 263.442 261.423 259.03C267.826 258.013 280.3 253.746 281.09 246.246C283.247 225.766 253.181 220.556 259.739 210.166C263.743 203.823 276.202 213.248 276.202 213.248L327.868 238.611C327.868 238.611 310.06 282.607 266.762 284.403C213.5 286.613 172.514 248.91 172.514 248.91Z" fill="white"/>
<path fill-rule="evenodd" clip-rule="evenodd" d="M131.432 76.6988C130.947 76.5088 128.341 73.3233 125.036 72.7458C123.534 72.4833 124.898 74.3945 123.246 74.413C118.323 74.4681 110.323 73.5496 108.841 74.4243C107.741 75.0724 110.168 77.3314 108.844 77.4362C96.3505 78.4253 77.2997 90.9151 73.1691 96.9704C71.8545 98.8975 82.496 95.6214 80.8008 96.5749C78.8982 97.6451 76.7927 104.645 75.5347 110.05C74.6638 113.773 74.1174 118.563 73.9272 123.774C73.7689 128.272 73.8343 129.017 74.4834 131.476C75.23 134.226 75.8131 135.035 76.8161 134.646C77.172 134.516 77.3334 134.03 77.3327 133.124C77.3322 132.412 77.7189 130.276 78.2028 128.366L79.0416 124.935L79.3987 126.359C79.8531 128.009 82.5109 133.12 84.9087 136.84C85.038 137.038 85.5936 136.786 86.0938 135.574C86.5496 134.47 86.3628 132.707 87.1371 130.816C88.9008 126.51 92.3661 120.91 96.3802 116.427C102.313 109.801 104.277 102.136 109.838 95.9807C120.216 84.493 133.247 77.4097 131.432 76.6988Z" fill="white"/>
<path fill-rule="evenodd" clip-rule="evenodd" d="M80.9496 98.1366C79.2844 99.4778 76.8196 110.348 76.7773 110.529C75.9064 114.252 75.0742 127.177 75.9371 129.623C76.8 132.07 79.204 123.247 79.204 123.247C79.204 123.247 82.8554 132.707 86.0773 135.298C86.215 135.409 82.2409 123.594 80.9642 116.696C79.2787 107.591 81.8974 97.3733 80.9496 98.1366Z" fill="#E7EAEE"/>
<path fill-rule="evenodd" clip-rule="evenodd" d="M143.204 288.426C146.31 287.744 151.551 285.373 153.557 284.562C155.564 283.751 161.673 275.11 163.866 265.367C165.447 258.181 166.248 247.953 165.34 246.239C165.206 245.995 164.713 241.345 166.017 242.863C168.917 246.236 172.359 251.532 183.201 242.028C186.154 239.44 190.068 236.099 189.035 233.149C186.143 224.895 173.622 208.281 171.714 207.023C169.433 205.519 157.911 206.808 140.758 201.76C121.305 196.035 113.193 179.138 105.584 181.344C99.4308 183.128 84.6927 194.075 80.9972 201.003C63.5506 233.709 84.7416 256.6 89.5687 263.176L94.252 265.195L94.4171 269.37L94.6457 271.991C95.0703 277.007 95.2325 277.46 97.4993 279.141C103.166 283.441 114.335 287.445 124.433 288.861C129.127 289.505 139.321 289.27 143.204 288.426Z" fill="white"/>
<path fill-rule="evenodd" clip-rule="evenodd" d="M96.0952 267.84L96.3238 270.461C96.7484 275.477 96.9106 275.93 99.1774 277.611C102.521 280.148 107.778 282.582 113.602 284.442C117.649 285.735 121.97 286.751 126.112 287.332C130.805 287.975 140.999 287.741 144.882 286.896C146.801 286.479 131.002 274.086 121.702 277.594C114.561 280.287 97.7079 259.796 104.549 254.434C112.224 248.419 98.1335 224.729 97.6764 219.583C97.2193 214.438 95.434 213.21 95.3821 213.391C95.3302 213.571 95.3306 214.187 95.4719 215.67C96.0806 222.063 96.0952 267.84 96.0952 267.84Z" fill="#E7EAEE"/>
<path fill-rule="evenodd" clip-rule="evenodd" d="M94.3706 218.117C95.0499 217.984 95.7083 218.427 95.8411 219.107C98.2934 231.654 108.632 240.141 127.11 244.569C145.698 249.023 158.357 248.772 165.023 243.997C165.586 243.594 165.169 247.043 164.757 247.307C160.409 250.101 145.621 254.275 127.967 250.526C105.395 245.734 94.7838 226.765 93.3809 219.587C93.2482 218.908 93.6912 218.25 94.3706 218.117Z" fill="#FFB61D"/>
<path fill-rule="evenodd" clip-rule="evenodd" d="M84.9417 195.483C85.5422 195.139 107.978 220.812 138.744 226.603C169.51 232.394 176.955 228.689 178.146 220.757C178.249 220.072 178.887 219.601 179.572 219.703C180.256 219.806 180.728 220.444 180.625 221.129C179.116 231.182 164.883 233.585 138.324 229.074C112.099 224.62 94.1123 214.002 84.4776 197.194C84.1334 196.594 84.3411 195.828 84.9417 195.483Z" fill="#FFB61D"/>
<path d="M163.856 69.2028C176.775 69.1712 182.132 71.2397 190.189 74.3511C191.163 74.7271 192.176 75.119 193.247 75.5236C216.9 84.462 225.183 102.206 227.243 106.62L227.245 106.625C227.33 106.807 227.404 106.967 227.469 107.102C234.244 121.337 236.304 134.747 233.663 150.316C233.308 152.419 233.084 154.2 233.148 154.266C233.214 154.329 233.958 154.005 234.83 153.552C236.124 152.839 236.674 152.742 237.839 152.903C239.846 153.192 240.721 153.677 241.466 154.874C242.568 156.685 242.603 159.533 241.571 164.486C241.378 165.36 241.377 165.36 243.124 165.359C245.325 165.357 246.103 165.906 246.784 167.912C247.173 169.109 247.238 169.886 247.013 171.277C246.745 172.921 249.707 174.232 263.369 180.274L263.381 180.279L263.412 180.293C264.531 180.788 265.723 181.316 266.99 181.877C274.597 185.237 280.974 187.012 281.137 187.012C281.331 187.012 281.816 186.3 282.204 185.393C283.528 182.447 286.763 180.341 291.293 179.496C293.365 179.109 296.338 179.186 298.057 180.041C299.995 181.005 302.495 184.342 303.241 186.736L303.63 187.901L305.474 187.058C307.059 186.312 307.739 186.182 310.231 186.18C313.435 186.178 313.953 186.339 317.515 188.699C319.911 190.25 321.466 192.321 322.212 194.909L322.731 196.624L324.414 195.976C328.005 194.614 332.343 195.743 335.549 198.879C337.363 200.722 338.692 202.518 338.695 206.321C338.697 209.534 336.182 222.406 335.149 225.644C332.792 232.831 325.724 253.647 317.767 262.618C310.673 270.615 308.079 272.153 303.727 274.734L303.724 274.736C303.195 275.05 302.64 275.379 302.048 275.737C289.561 283.288 275.81 286.729 258.366 286.742C247.977 286.75 240.241 285.818 229.365 283.173C207.548 277.915 186.535 266.668 172.413 252.666C171.965 252.219 171.316 251.552 170.591 250.809L170.588 250.807L170.584 250.802L170.571 250.789C168.152 248.31 164.904 244.98 165.45 245.972C166.358 247.687 165.557 257.914 163.977 265.1C161.784 274.843 155.674 283.485 153.668 284.296C153.273 284.455 152.755 284.675 152.152 284.93L152.151 284.93C149.684 285.973 145.81 287.611 143.314 288.159C139.431 289.004 129.237 289.238 124.544 288.595C114.445 287.179 103.277 283.174 97.6097 278.874C95.343 277.193 95.1801 276.74 94.7554 271.724L94.5268 269.103L93.0377 268.036C90.6737 266.322 85.0058 260.761 83.1267 258.205C81.5802 256.163 79.4212 251.641 78.3063 249.307C77.9033 248.463 77.6362 247.905 77.5844 247.853C77.0014 247.368 74.8924 240.508 74.3721 237.337C72.1287 223.973 75.2884 208.306 82.3353 197.686C87.3457 190.109 94.7198 184.18 101.773 182.006C103.941 181.325 107.889 181.031 107.275 181.614C107.112 181.744 105.689 182.263 104.072 182.75C94.1709 185.767 87.4117 191.986 81.9187 203.188C75.4562 216.332 73.817 230.933 78.5199 243.939C78.6912 244.403 78.872 244.932 79.068 245.505C79.9105 247.97 81.0366 251.265 82.929 253.836C85.1643 256.844 91.5775 263.344 93.2614 264.314L94.3624 264.928L94.1669 263.342C93.2876 256.384 93.0999 223.277 93.904 216.933C94.2578 214.15 94.5807 213.372 95.3895 213.372C95.7779 213.371 95.8436 214.667 95.8483 220.557C95.8594 234.797 97.5016 265.571 98.6729 273.565C98.7373 273.978 98.7988 274.375 98.8555 274.741C99.0562 276.037 99.2007 276.967 99.2264 276.996C99.6473 277.287 105.895 279.903 108.323 280.808C117.485 284.231 129.493 286.034 137.648 285.218C144.088 284.566 148.739 283.501 151.844 281.136C152.685 280.488 155.475 278.117 156.929 274.945C159.578 269.085 162.192 259.664 163.771 250.116C164.254 247.139 164.77 244.809 164.932 244.937C165.093 245.065 164.639 244.257 163.926 243.093C162.144 240.15 160.589 237.174 160.588 236.688C160.588 235.588 161.948 236.752 164.345 239.986C165.77 241.926 167.617 244.028 168.394 244.643C169.172 245.289 171.342 247.133 173.22 248.749C184.004 258.126 194.074 264.818 205.438 270.279C223.212 278.744 243.703 283.388 260.37 282.696C286.033 281.64 306.997 271.72 317.761 255.53C318.894 253.812 327.079 240.25 326.616 239.729C326.38 239.464 325.259 239.711 324.162 239.953C323.341 240.135 322.533 240.313 322.118 240.271C320.305 240.078 313.496 238.156 312.857 233.559C312.775 232.971 311.43 231.255 311.425 231.25C311.425 231.25 310.072 231.554 308.422 232.332C305.252 233.823 302.112 233.017 298.063 229.655C295.926 227.876 294.922 226.097 294.888 224.155C294.887 223.023 293.847 221.623 293.559 221.454C293.271 221.286 291.877 221.844 291.456 222.297C289.806 224.078 283.821 223.909 281.391 222.612C280.007 221.873 277.861 219.702 277.407 218.019C277.365 217.883 277.318 217.663 277.259 217.392C276.996 216.177 276.509 213.937 275.364 213.62C274.976 213.426 273.065 212.521 271.09 211.616C269.148 210.679 266.785 209.581 265.878 209.161C264.357 208.418 264.097 208.386 262.738 208.743C261.25 209.1 260.248 210.848 260.249 211.625C260.249 212.822 260.77 215.055 262.163 217.028C264.366 220.166 267.702 223.109 273.109 226.697C277.966 229.929 279.035 230.964 280.656 233.972C282.309 237.077 282.99 240.281 283.059 245.168C283.094 248.728 272.214 262.653 257.051 261.306C241.888 259.958 225.299 255.667 214.906 250.497C203.866 244.971 194.118 237.826 185.179 228.61C180.968 224.309 180.644 223.888 176.853 217.516C172.089 209.461 171.797 208.91 172.023 208.004C172.067 207.818 172.099 207.682 172.051 207.589C171.923 207.343 171.231 207.387 168.721 207.554C164.805 207.848 157.62 207.433 153.283 206.693C142.084 204.759 132.112 200.268 122.268 192.768C121.426 192.121 120.811 191.798 120.908 192.057C121.07 192.445 120.585 192.64 118.87 192.9C116.249 193.355 113.886 192.839 112.752 191.61C111.003 189.702 108.733 183.878 108.569 180.836C108.503 179.315 108.276 178.442 107.952 178.215C107.693 178.021 107.466 177.601 107.466 177.277C107.465 176.921 107.303 176.792 107.012 176.889C106.754 176.986 106.3 176.792 105.976 176.437C105.941 176.398 105.733 176.253 105.391 176.013L104.076 175.082C100.301 172.357 92.0923 165.949 90.4607 159.491C88.3505 151.137 87.4404 145.706 87.1474 143.473C86.5941 139.525 86.5612 139.363 84.9088 136.84C82.511 133.12 79.853 128.009 79.3986 126.359L79.042 124.935L78.2029 128.366C77.7191 130.276 77.3322 132.412 77.3326 133.124C77.3333 134.03 77.1721 134.516 76.8162 134.646C75.8133 135.035 75.2302 134.226 74.4837 131.476C73.8346 129.017 73.7696 128.272 73.9279 123.774C74.118 118.563 74.6644 113.773 75.5353 110.05C76.7931 104.645 78.7951 99.5628 80.3149 97.9107C80.9938 97.1659 81.8354 96.9385 81.836 97.5208C81.8361 97.7149 81.6097 97.8442 81.3509 97.8444C80.0888 97.8454 77.2806 106.909 76.2183 114.257C75.7035 117.978 75.4855 129.56 75.9705 129.565C76.0999 129.565 76.5207 128.594 76.9405 127.429C77.8123 124.936 79.1371 122.766 79.8167 122.766C80.1403 122.765 80.1731 122.928 79.9792 123.284C79.6239 123.899 80.1105 125.744 80.9528 126.973C81.0662 127.149 81.3269 127.564 81.6783 128.125L81.6793 128.127C82.2326 129.011 83.0123 130.256 83.804 131.501L86.1048 135.221L85.9071 131.014C85.7433 128.36 85.8063 125.771 86.0638 124.056C86.4176 121.24 87.2576 118.974 87.8402 119.135C88.2285 119.232 88.2289 120.366 87.7469 124.67C87.522 126.513 87.4264 128.098 87.4909 128.197C87.588 128.262 87.847 127.905 88.1055 127.387C88.3966 126.901 89.2369 125.735 90.0127 124.829C90.821 123.922 91.8554 122.368 92.34 121.364C93.245 119.519 97.1255 114.823 99.0983 113.171C99.8744 112.524 100.618 111.358 101.458 109.48C106.917 96.9835 116.682 86.0039 128.684 78.9393C131.757 77.1246 131.983 76.9309 131.271 76.6726C130.882 76.5109 129.426 75.8319 128.099 75.1858C127.149 74.7235 126.266 74.3111 125.792 74.09C125.604 74.0021 125.48 73.9446 125.444 73.9262C125.346 73.8617 125.152 74.1204 125.023 74.4763C124.733 75.4474 124.247 75.3185 123.826 74.154C123.631 73.604 123.145 73.0536 122.724 72.8922C121.721 72.5046 121.72 71.6637 122.723 71.4039C123.597 71.2091 125.313 71.9838 128.098 73.8587C129.069 74.5051 130.396 75.3134 131.011 75.6367C131.626 75.9597 132.242 76.3478 132.339 76.5097C132.436 76.639 133.601 76.2817 134.927 75.6658C144.471 71.2893 149.375 69.2382 163.856 69.2028ZM208.323 192.927C199.105 199.892 187.684 204.788 175.938 206.804C173.155 207.259 172.573 207.454 173.252 207.648C173.9 207.809 174.45 208.424 175.195 209.717C178.76 216.025 187.767 227.409 194.697 233.262C211.149 247.1 233.875 256.048 252.679 257.684C258.667 258.197 266.531 256.897 270.995 254.66C273.615 253.331 276.494 251.064 277.528 249.542C279.112 247.146 280.301 244.49 280.339 243.422C280.655 234.583 272.115 228.541 267.153 225.471C260.837 221.562 257.534 215.867 257.532 212.695C257.529 209.88 258.854 208.034 259.565 207.063L260.244 206.156L259.532 205.703C255.096 202.988 250.434 200.37 246.031 198.108C243.085 196.59 239.653 194.682 238.422 193.81L236.123 192.29L235.314 193.036C233.826 194.461 231.141 195.466 228.908 195.467C226.966 195.469 226.772 195.404 225.736 194.369L224.602 193.237L223.211 194.178C221.174 195.571 217.809 197.094 216.806 197.095C214.314 197.097 210.946 194.964 210.071 192.861L209.681 191.923L208.323 192.927ZM248.634 175.419C246.692 174.288 246.303 174.191 246.304 174.935C246.305 175.906 244.334 180.406 242.815 182.834C242.007 184.162 240.423 186.558 239.292 188.145L237.287 191.027L239.618 192.061C240.101 192.283 245.434 194.841 251.839 197.912C262.166 202.864 275.281 209.154 275.361 209.154C275.491 209.153 276.097 207.748 276.233 206.111C276.553 202.583 277.747 197.792 279.136 194.457C279.781 192.97 280.297 191.11 280.298 190.946C280.298 190.872 279.772 190.66 278.911 190.313C277.885 189.9 276.383 189.296 274.73 188.506C266.571 184.596 250.609 176.615 248.634 175.419ZM242.108 189.179C241.428 188.305 242.074 187.916 243.984 188.077C245.133 188.174 272.801 202.168 274.807 203.328C275.735 203.865 274.128 204.656 273.739 204.786C271.453 204.982 268.76 204.553 266.554 203.27C265.4 202.453 256.314 197.415 250.288 194.073C247.532 192.545 245.416 191.371 244.989 191.118C243.63 190.31 242.335 189.438 242.108 189.179ZM238.715 155.588C237.906 155.038 236.029 155.363 234.379 156.335C232.988 157.113 232.503 157.632 231.857 158.991C231.437 159.93 231.082 160.837 231.082 161.063C231.083 161.743 228.143 168.769 226.979 170.873C223.489 177.186 219.448 182.497 214.177 187.679L210.749 191.08L211.721 192.277C212.304 193.021 213.21 193.668 214.052 193.958C216.351 194.798 217.71 194.635 220.039 193.339C222.4 192.01 224.146 190.293 226.83 186.731C227.832 185.403 229.222 183.493 229.966 182.521C234.718 176.142 237.013 171.706 238.723 165.523C240.272 159.891 240.27 156.622 238.715 155.588ZM242.53 167.727C241.305 167.728 240.398 168.871 238.859 172.902C236.846 178.172 225.625 192.458 225.572 192.525L226.253 193.204C226.836 193.786 227.16 193.85 228.292 193.688C230.072 193.395 233.129 192.098 234.487 190.835C235.069 190.252 236.395 188.568 237.43 187.047C241.891 180.409 243.377 177.332 244.344 172.671C244.924 169.791 244.487 168.949 244.033 168.27C243.774 167.882 243.214 167.727 242.53 167.727ZM98.1633 117.606C97.9348 117.381 90.3375 126.12 89.3039 128.908C89.077 129.52 88.4635 130.591 87.9786 131.239L87.1386 132.319C87.1386 132.319 87.4008 133.833 87.6911 135.734C88.3767 140.224 88.2138 141.434 88.9934 145.187C89.5132 147.84 90.0328 150.137 90.1625 150.299C90.2599 150.494 90.6817 151.982 91.1035 153.632C92.0126 157.288 93.5361 160.912 94.8968 162.691C97.5208 166.055 100.987 169.87 102.607 171.164C103.578 171.94 104.42 172.587 104.485 172.587C104.516 172.585 103.803 171.097 102.896 169.287C99.2334 162.008 97.0921 154.76 96.0823 146.411C95.8543 144.567 95.4963 143.013 95.1074 142.366C94.3301 141.072 94.3294 139.39 95.1371 137.803C95.5571 136.962 95.7821 135.893 95.7811 134.728L95.7798 132.948L94.2283 134.568C92.7084 136.155 91.2525 136.803 91.2517 135.832C91.2517 135.119 93.6437 131.687 94.9049 130.618C95.9069 129.776 96.0365 129.484 96.3581 126.961C96.5834 125.439 97.0991 122.753 97.5184 120.972C97.9698 119.193 98.2276 117.672 98.1633 117.606ZM80.6165 110.241C81.1013 109.755 81.5219 109.529 81.5223 109.69C81.5218 110.111 79.905 111.6 79.0963 111.924C78.5787 112.151 78.7407 112.249 80.0031 112.539C80.8768 112.732 81.4597 113.023 81.3307 113.153C80.9103 113.574 78.6768 113.381 78.1586 112.864C77.3492 112.088 77.5427 111.538 78.6749 111.31C79.2574 111.213 80.1314 110.726 80.6165 110.241ZM91.6198 110.717C92.1367 109.681 92.3635 109.488 92.461 109.908C92.5258 110.232 92.3641 110.847 92.0734 111.268C91.3626 112.368 91.4274 112.497 92.5273 112.335C93.6274 112.172 93.8221 112.528 92.8843 113.046C92.1079 113.435 91.3312 113.436 90.3276 113.016C89.5508 112.725 89.6147 112.078 90.4236 112.078C90.6825 112.077 91.232 111.462 91.6198 110.717ZM100.236 78.2174C103.374 77.3088 106.902 77.1769 107.906 77.9204C108.456 78.3407 108.262 78.3731 105.867 78.4073C100.689 78.4114 94.704 81.0704 84.9679 87.5828C79.9222 90.9524 74.0679 95.779 74.0677 96.5562C74.0691 96.7173 75.007 96.3931 76.1707 95.8749C78.6616 94.7403 81.2181 94.1552 82.3512 94.413C83.5489 94.7357 83.2902 95.1574 81.6723 95.3852C80.8953 95.5155 78.469 96.4878 76.3341 97.5574C74.1666 98.5947 72.3225 99.4698 72.193 99.4375C68.8919 99.084 73.4833 93.5785 81.8285 87.9408C89.818 82.5299 95.2208 79.6776 100.236 78.2174ZM99.1425 87.3452C100.728 87.3116 101.085 87.4083 101.182 87.8612C101.279 88.3141 101.085 88.3793 100.212 88.2506C99.6292 88.154 98.7878 88.2189 98.3348 88.381L97.5254 88.6736L98.2697 88.8996C99.2409 89.2224 99.1768 89.7726 97.98 90.5502C97.43 90.9068 95.8776 92.4284 94.552 93.9503L92.1274 96.7032L94.7486 96.7988C96.203 96.8623 97.3668 97.0229 97.37 97.1845C97.3702 97.5081 97.2411 97.5414 94.1998 98.1586C90.7374 98.841 90.1871 98.5497 91.1889 96.6395C91.836 95.3438 97.0415 90.0656 97.6564 90.0651C97.8504 90.0648 98.0118 89.9344 98.0116 89.8051C98.0093 89.6432 97.1686 89.3853 96.1665 89.2245C92.5415 88.6447 94.5147 87.4135 99.1425 87.3452ZM114.382 83.1585C114.642 82.8995 117.813 83.253 118.267 83.6085C118.461 83.7701 118.752 83.7369 118.946 83.5426C119.399 83.0896 120.014 83.4453 120.015 84.157C120.015 84.5452 119.918 84.578 119.626 84.2872C119.368 84.0287 119.141 84.0283 118.85 84.2546C118.591 84.4813 118.397 84.4816 118.235 84.2228C118.137 84.0612 117.522 83.9002 116.875 83.9007C116.279 83.9011 115.996 83.9012 115.938 84.0147C115.886 84.1167 116.016 84.3107 116.261 84.6775C116.777 85.4837 116.747 85.4862 115.56 85.5833L115.549 85.5843C114.611 85.6498 114.384 85.8121 114.449 86.2649C114.453 86.2876 114.457 86.3101 114.46 86.3313C114.497 86.5703 114.517 86.7073 114.463 86.7492C114.391 86.8056 114.183 86.6881 113.694 86.411C113.666 86.3955 113.638 86.3796 113.609 86.3632C112.994 86.0401 112.928 85.8775 113.284 85.6183C113.51 85.424 114.125 85.1327 114.61 85.0352L115.517 84.808L114.836 84.0966C114.48 83.6765 114.286 83.2882 114.382 83.1585ZM102.984 74.6879C102.368 73.0703 105.636 72.4525 112.109 72.9005C117.514 73.2846 120.331 73.8326 122.532 74.9636C123.794 75.642 123.924 75.772 123.245 75.7726C122.792 75.773 121.562 75.5797 120.493 75.3216C119.425 75.0312 116.382 74.7424 113.696 74.6151L108.841 74.4245L109.748 75.3301C110.234 75.8151 110.623 76.559 110.624 76.9798C110.624 77.9181 110.366 77.9183 109.426 76.9807C108.552 76.1076 105.962 75.171 104.376 75.1721C103.6 75.1727 103.082 75.0113 102.984 74.6879Z" fill="#00160A"/>
<path d="M315.892 224.794C319.91 213.821 319.299 211.484 318.6 211.256C318.6 211.256 317.064 212.131 316.385 213.976C315.126 217.44 310.813 226.505 309.196 228.124C307.288 230.035 307.288 230.035 305.346 230.037C303.404 230.038 297.802 227.118 297.037 224.236C295.813 219.625 301.053 203.599 301.182 202.693L300.308 202.079C299.726 202.629 292.166 225.613 282.198 219.634C281.056 218.949 278.635 215.721 278.439 214.006C277.357 209.022 282.292 191.591 283.13 188.01C283.881 184.806 287.8 181.829 292.622 181.825C300.033 181.819 299.043 188.298 302.364 190.579C303.836 191.589 306.252 189.753 306.997 189.613C311.172 188.833 312.772 189.737 315.835 192.163C318.199 194.036 319.95 197.746 321.875 199.052C322.944 199.777 324.077 198.784 324.448 198.597C325.97 197.831 329.238 198.399 330.145 199.045C331.474 199.624 334.731 202.75 335.247 204.57C337.585 212.817 330.239 231.11 327.463 234.543C322.868 240.225 311.875 235.767 315.892 224.794Z" fill="white"/>
<path fill-rule="evenodd" clip-rule="evenodd" d="M129.81 194.88C138.682 200.472 147.829 204.122 158.251 205.117C166.472 205.887 177.555 204.811 185.514 202.215C192.212 200.042 201.269 194.028 207.317 188.942C219.057 179.094 226.456 163.721 229.68 147.407C230.131 145.109 230.818 139.332 230.781 133.604C230.776 126.937 227.827 108.72 218.929 98.2225C200.576 76.5706 170.429 66.8341 145.105 75.1932C135.97 78.2087 126.245 83.6666 118.904 90.7924C109.655 99.829 102.836 112.133 100.128 124.692C97.2899 137.963 101.007 153.818 107.458 166.824C112.611 177.176 121.1 189.353 129.81 194.88ZM216.191 155.702C210.121 173.993 194.273 187.663 174.34 191.821C171.299 192.438 169.195 192.666 164.923 192.734C161.914 192.834 158.904 192.804 158.289 192.739C144.339 191.067 133.719 185.93 123.938 176.164C119.663 171.863 117.848 169.534 115.191 164.94C111.01 157.662 108.772 150.22 108.085 141.256C105.731 110.544 127.686 84.9277 158.623 82.2497C170.759 81.2045 184.225 84.9158 194.457 92.1573C198.246 94.8405 205.112 101.632 207.251 104.801C208.126 106.063 216.615 118.452 218.109 125.57C220.026 134.825 219.29 146.412 216.191 155.702Z" fill="white"/>
<path fill-rule="evenodd" clip-rule="evenodd" d="M230.792 133.604C230.809 155.327 220.552 179.084 207.299 189.236C200.976 194.08 192.712 199.946 185.514 202.215C174.965 205.541 158.251 205.117 158.251 205.117C158.251 205.117 175.3 202.824 181.617 200.276C199.731 192.97 209.614 181.768 215.713 171.023C227.753 149.813 230.792 133.076 230.792 133.604Z" fill="#E7EAEE"/>
<path fill-rule="evenodd" clip-rule="evenodd" d="M158.609 188.855C149.967 187.762 141.388 184.694 134.459 180.136C130.347 177.453 124.128 171.147 121.115 166.651C116.805 160.182 113.952 153.258 112.554 145.815C111.547 140.412 111.573 132.094 112.572 127.271C113.604 122.351 114.928 118.596 117.287 113.836C120.033 108.332 122.943 104.285 127.309 99.9123C134.747 92.4628 143.384 87.731 153.674 85.4575C157.007 84.7429 169.078 84.1509 169.499 84.7007C169.596 84.8625 170.244 85.2827 170.924 85.6382C171.604 86.026 173.417 87.3838 174.907 88.7096C177.141 90.6497 178.146 91.8787 180.09 94.9194C181.418 96.9896 182.488 98.8658 182.488 99.0277C182.488 99.3837 183.524 100.03 184.107 100.03C184.916 100.029 185.464 97.6013 185.623 93.3292C185.718 90.9666 185.911 89.0246 186.04 89.0245C186.493 89.0242 191.479 91.7712 193.811 93.3228C198.376 96.3614 202.943 100.63 206.312 105.093C207.835 107.099 208.062 107.616 208.063 108.846C208.064 109.979 208.388 110.853 209.393 112.599C211.921 116.999 213.899 122.531 215.101 128.647C215.881 132.757 215.887 140.524 215.082 144.829C212.89 156.676 206.362 168.461 197.856 175.944C190.644 182.261 182.977 186.15 173.917 188.067C170.81 188.749 161.49 189.209 158.609 188.855ZM135.452 166.737C135.743 166.413 135.937 165.927 135.839 165.701C135.81 165.633 135.405 165.443 134.811 165.164C133.428 164.515 131.023 163.387 129.981 162.21C125.834 157.488 124.311 153.962 123.366 146.681C122.455 139.594 123.212 134.802 124.84 127.1C125.634 123.342 127.749 120.238 129.066 118.306C129.961 116.993 130.486 116.222 129.975 116.157C128.713 115.964 128.519 116.061 127.193 117.324C124.347 120.045 123.054 122.214 121.698 126.39C119.6 132.929 119.207 150.597 123.376 158.558C127.544 166.52 134.708 167.579 135.452 166.737ZM181.452 139.515C180.906 144.543 178.581 151.816 175.865 154.99C174.604 156.479 169.973 159.04 166.061 158.525C162.284 158.028 159.328 156.265 156.801 152.48C154.63 149.213 153.507 145.246 152.746 140.25C151.431 131.622 157.133 121.573 159.59 119.079C162.08 116.52 163.86 115.612 166.125 115.578C168.326 115.577 169.75 116.061 171.984 117.645C176.064 120.49 182.512 129.745 181.452 139.515ZM137.805 112.785C138.451 112.04 138.548 111.684 138.353 110.292C138.222 108.998 137.963 108.48 137.283 107.931C136.085 106.961 134.596 106.962 133.496 107.998C132.72 108.743 132.623 109.002 132.722 110.782C132.821 112.692 132.885 112.821 133.954 113.403C135.378 114.178 136.77 113.951 137.805 112.785ZM157.984 92.8006C152.162 96.9801 149.639 98.6973 147.018 100.318C144.948 101.614 144.301 101.647 144.3 100.482C144.3 99.8666 144.752 99.1866 145.916 98.1177L147.533 96.6277L144.394 96.2094C140.866 95.7591 137.435 94.7909 136.69 94.0471C135.459 92.7859 136.527 92.4938 140.022 93.1383C141.576 93.396 144.586 93.7173 146.722 93.7804L150.606 93.9391L153.42 91.898C159.598 87.427 166.004 84.8976 169.079 85.672C170.989 86.1236 170.763 86.6416 168.595 86.9022C166.103 87.1954 164.582 88.038 157.984 92.8006Z" fill="white"/>
<path d="M166.349 154.091C166.349 153.929 166.543 153.767 166.802 153.767C167.061 153.767 167.385 153.928 167.482 154.09C167.579 154.284 167.385 154.414 167.029 154.414C166.641 154.414 166.35 154.285 166.349 154.091Z" fill="white"/>
<path d="M168.291 153.798C168.291 153.442 169.1 153.118 170.006 153.117C170.718 153.149 170.718 153.149 170.103 153.602C169.392 154.153 168.291 154.251 168.291 153.798Z" fill="white"/>
<path d="M163.274 152.96C163.177 152.702 163.047 152.249 162.95 151.99C162.852 151.666 163.014 151.504 163.435 151.504C163.791 151.504 164.082 151.698 164.082 151.957C164.082 152.215 164.18 152.636 164.277 152.927C164.407 153.283 164.31 153.445 163.954 153.445C163.663 153.446 163.339 153.219 163.274 152.96Z" fill="white"/>
<path d="M164.989 152.15C164.826 151.179 165.182 150.855 166.347 150.854C166.703 150.854 166.994 151.178 167.124 151.728C167.384 152.666 166.964 153.119 165.831 153.12C165.313 153.121 165.086 152.894 164.989 152.15Z" fill="white"/>
<path d="M161.688 152.314C161.072 151.829 161.072 151.829 161.752 151.829C162.173 151.829 162.464 152.023 162.464 152.314C162.465 152.896 162.465 152.896 161.688 152.314Z" fill="white"/>
<path d="M168.193 152.277C167.772 151.857 167.965 150.594 168.483 150.4C169.421 150.043 169.842 150.204 170.037 151.046C170.166 151.531 170.231 151.952 170.167 151.984C169.908 152.276 168.387 152.471 168.193 152.277Z" fill="white"/>
<path d="M171.073 151.595C170.975 151.498 170.878 151.077 170.878 150.689C170.877 150.139 171.136 149.912 171.913 149.75C172.592 149.62 173.013 149.684 173.207 149.943C173.531 150.46 173.532 151.108 173.241 151.27C172.658 151.594 171.299 151.789 171.073 151.595Z" fill="white"/>
<path d="M160.198 150.6C160.197 150.212 160.488 149.888 160.909 149.791C161.75 149.564 161.718 149.531 161.88 150.373C161.945 150.858 161.784 151.052 161.104 151.117C160.392 151.215 160.198 151.086 160.198 150.6Z" fill="white"/>
<path d="M162.657 150.631C162.204 150.146 162.494 149.239 163.109 149.239C163.53 149.238 163.757 149.465 163.757 149.853C163.757 150.468 163.013 150.986 162.657 150.631Z" fill="white"/>
<path d="M164.598 149.658C164.339 149.044 164.889 148.59 165.957 148.589C166.442 148.589 166.669 148.783 166.669 149.204C166.67 149.56 166.379 149.883 165.958 150.013C164.89 150.273 164.825 150.273 164.598 149.658Z" fill="white"/>
<path d="M173.951 149.554C174.048 149.392 174.21 149.23 174.307 149.23C174.404 149.23 174.372 149.392 174.275 149.554C174.178 149.748 174.016 149.878 173.919 149.878C173.822 149.878 173.854 149.748 173.951 149.554Z" fill="white"/>
<path d="M167.511 149.009C167.251 148.362 167.575 148.038 168.61 147.875C169.193 147.81 169.452 147.939 169.517 148.392C169.744 149.46 167.9 150.044 167.511 149.009Z" fill="white"/>
<path d="M159.743 148.465C159.451 147.397 159.516 147.3 160.357 147.299C160.81 147.299 161.166 147.428 161.166 147.59C161.166 147.752 161.264 148.108 161.361 148.366C161.458 148.69 161.264 148.884 160.714 148.982C160.099 149.112 159.873 148.982 159.743 148.465Z" fill="white"/>
<path d="M170.552 148.1C170.552 147.518 170.778 147.259 171.393 147.096C172.299 146.869 172.817 147.322 172.818 148.358C172.818 148.778 172.559 148.908 171.685 148.909C170.682 148.909 170.553 148.812 170.552 148.1Z" fill="white"/>
<path d="M158.772 148.109C158.674 147.851 158.739 147.624 158.901 147.624C159.095 147.624 159.224 147.85 159.225 148.109C159.225 148.368 159.16 148.595 159.096 148.595C159.031 148.595 158.901 148.368 158.772 148.109Z" fill="white"/>
<path d="M162.041 148.366C161.587 147.945 161.845 147.039 162.428 146.877C162.784 146.779 163.14 146.811 163.237 146.908C163.626 147.264 163.4 148.203 162.914 148.397C162.3 148.624 162.3 148.624 162.041 148.366Z" fill="white"/>
<path d="M173.594 148.13C173.238 147.192 173.625 146.48 174.531 146.382C175.211 146.284 175.405 146.414 175.406 146.931C175.407 147.999 175.051 148.582 174.404 148.583C174.048 148.583 173.692 148.389 173.594 148.13Z" fill="white"/>
<path d="M164.305 147.717C163.917 147.361 164.046 146.714 164.596 146.519C165.21 146.292 166.506 146.938 166.15 147.295C165.697 147.683 164.532 147.976 164.305 147.717Z" fill="white"/>
<path d="M167.12 146.906C166.829 146.453 167.864 145.675 168.705 145.675C169.094 145.674 169.256 145.868 169.191 146.224C169.062 146.872 167.412 147.391 167.12 146.906Z" fill="white"/>
<path d="M158.253 146.686C158.253 146.524 158.155 146.168 158.058 145.877C157.96 145.586 157.993 145.359 158.187 145.359C158.608 145.359 158.932 146.588 158.544 146.847C158.382 146.945 158.253 146.88 158.253 146.686Z" fill="white"/>
<path d="M159.126 145.941C158.931 145.229 159.319 144.711 160.063 144.71C160.484 144.71 160.906 145.972 160.647 146.393C160.292 146.943 159.288 146.62 159.126 145.941Z" fill="white"/>
<path d="M161.391 146.101C160.905 145.616 161.196 144.45 161.843 144.288C162.328 144.158 162.587 144.32 162.847 144.902C163.041 145.323 163.139 145.743 163.074 145.808C162.751 146.1 161.586 146.327 161.391 146.101Z" fill="white"/>
<path d="M170.13 146.094C169.709 145.674 169.903 145.415 170.873 145.058C171.682 144.798 171.909 144.831 172.071 145.219C172.363 145.995 170.745 146.741 170.13 146.094Z" fill="white"/>
<path d="M172.977 145.348C172.653 144.83 173.106 144.377 173.947 144.376C174.951 144.375 175.243 145.216 174.337 145.476C173.366 145.736 173.204 145.703 172.977 145.348Z" fill="white"/>
<path d="M175.727 144.569C175.727 144.083 176.309 143.565 176.568 143.824C176.795 144.05 176.342 145.021 176.019 145.021C175.857 145.022 175.727 144.827 175.727 144.569Z" fill="white"/>
<path d="M157.83 144.162C157.7 144.065 157.603 143.644 157.635 143.288C157.635 142.673 157.667 142.673 157.959 143.385C158.283 144.161 158.219 144.55 157.83 144.162Z" fill="white"/>
<path d="M158.444 143.676C158.152 142.543 158.185 142.446 159.026 142.446C159.965 142.445 160.548 143.642 159.836 144.096C159.092 144.549 158.672 144.42 158.444 143.676Z" fill="white"/>
<path d="M169.578 144.315C169.578 144.218 169.739 143.7 169.933 143.117C170.385 141.822 171.388 141.756 171.616 143.018C171.713 143.504 171.746 143.925 171.714 143.957C171.552 144.151 169.578 144.444 169.578 144.315Z" fill="white"/>
<path d="M160.742 143.512C160.613 143.415 160.515 143.027 160.515 142.671C160.515 142.153 160.612 142.121 161 142.444C161.259 142.67 161.486 143.059 161.486 143.285C161.487 143.771 161.098 143.9 160.742 143.512Z" fill="white"/>
<path d="M172.392 142.856C172.197 141.853 172.618 141.399 173.621 141.528C174.107 141.592 174.269 141.883 174.269 142.595C174.27 143.405 174.141 143.599 173.429 143.664C172.717 143.762 172.555 143.6 172.392 142.856Z" fill="white"/>
<path d="M175.564 142.983C175.143 141.689 175.272 141.3 176.146 141.203C176.922 141.105 177.019 141.202 177.02 142.043C177.021 142.755 176.827 143.047 176.341 143.177C175.985 143.274 175.629 143.177 175.564 142.983Z" fill="white"/>
<path d="M157.342 141.152C157.342 140.538 157.406 140.279 157.504 140.602C157.569 140.893 157.569 141.411 157.505 141.735C157.408 142.026 157.343 141.767 157.342 141.152Z" fill="white"/>
<path d="M158.152 141.572C157.731 141.184 157.924 139.922 158.442 139.728C159.186 139.436 159.542 139.791 159.543 140.859C159.543 141.539 159.382 141.798 158.961 141.798C158.637 141.799 158.249 141.702 158.152 141.572Z" fill="white"/>
<path d="M160.093 140.697C159.963 140.212 159.898 139.694 160.027 139.597C160.351 139.273 160.545 139.791 160.449 140.729L160.352 141.635L160.093 140.697Z" fill="white"/>
<path d="M170.546 140.462C170.546 140.106 170.707 139.912 170.869 140.009C171.063 140.106 171.193 140.43 171.193 140.688C171.193 140.947 171.064 141.142 170.87 141.142C170.708 141.142 170.546 140.851 170.546 140.462Z" fill="white"/>
<path d="M172.003 140.882C171.549 140.397 171.905 139.523 172.649 139.328C173.587 139.101 173.62 139.101 173.912 140.039C174.106 140.622 173.977 140.751 173.136 140.881C172.618 140.979 172.1 140.947 172.003 140.882Z" fill="white"/>
<path d="M174.98 140.265C174.623 139.941 174.72 138.873 175.076 138.873C175.27 138.873 175.399 138.743 175.399 138.549C175.399 138.387 175.205 138.226 174.946 138.226C174.396 138.226 173.941 136.641 174.394 136.187C174.976 135.604 175.624 136.219 176.013 137.804C176.241 138.646 176.468 139.616 176.565 139.94C176.695 140.361 176.566 140.49 175.951 140.491C175.53 140.491 175.077 140.394 174.98 140.265Z" fill="white"/>
<path d="M176.726 138.548C176.499 137.577 175.915 135.636 175.493 134.212C174.844 132.142 174.779 131.624 175.135 131.397C175.361 131.235 175.652 131.105 175.749 131.105C176.105 131.105 177.405 137.739 177.277 139.033L177.181 140.328L176.726 138.548Z" fill="white"/>
<path d="M157.017 138.402C157.016 137.884 157.081 137.69 157.178 138.013C157.243 138.305 157.243 138.758 157.179 138.984C157.082 139.178 157.017 138.952 157.017 138.402Z" fill="white"/>
<path d="M157.664 138.337C157.792 137.204 158.73 136.944 158.99 137.98C159.217 138.821 159.282 138.724 158.311 139.048C157.632 139.243 157.567 139.178 157.664 138.337Z" fill="white"/>
<path d="M171.321 138.034C171.061 137.096 171.611 136.546 172.647 136.674C173.424 136.771 173.716 138.162 173.069 138.583C172.26 139.102 171.516 138.876 171.321 138.034Z" fill="white"/>
<path d="M159.54 137.785C159.54 137.235 159.701 136.943 160.057 136.943C160.381 136.943 160.511 137.169 160.446 137.655C160.285 138.69 159.541 138.788 159.54 137.785Z" fill="white"/>
<path d="M156.659 136.428C156.659 136.072 156.756 135.975 156.853 136.234C156.95 136.46 156.918 136.751 156.821 136.848C156.724 136.978 156.627 136.784 156.659 136.428Z" fill="white"/>
<path d="M157.273 136.33C157.273 135.845 157.467 135.65 157.953 135.65C158.406 135.65 158.568 135.811 158.503 136.2C158.342 137.041 157.274 137.139 157.273 136.33Z" fill="white"/>
<path d="M159.053 136.038C158.826 135.455 158.826 135.455 159.797 135.196C160.38 135.001 160.509 135.098 160.509 135.583C160.51 136.36 159.345 136.749 159.053 136.038Z" fill="white"/>
<path d="M170.769 135.575C170.541 134.767 170.962 134.346 172.095 134.345C172.645 134.344 172.807 134.538 172.807 135.153C172.808 135.639 172.614 135.962 172.355 135.963C172.096 135.963 171.675 136.06 171.416 136.158C171.125 136.255 170.898 136.061 170.769 135.575Z" fill="white"/>
<path d="M173.584 134.829C173.325 134.182 173.713 133.696 174.457 133.695C174.91 133.695 175.072 133.921 175.072 134.504C175.073 135.086 174.911 135.313 174.426 135.314C174.07 135.314 173.681 135.088 173.584 134.829Z" fill="white"/>
<path d="M156.949 134.389C156.948 133.709 157.692 132.932 158.016 133.288C158.145 133.385 158.243 133.838 158.243 134.258C158.244 134.776 158.05 135.003 157.596 135.003C157.176 135.003 156.949 134.777 156.949 134.389Z" fill="white"/>
<path d="M158.728 133.999C158.468 133.19 158.759 132.834 159.86 132.671C160.863 132.541 161.187 133.609 160.314 134.257C159.473 134.872 158.955 134.776 158.728 133.999Z" fill="white"/>
<path d="M170.444 133.796C170.217 133.602 170.119 132.404 170.313 132.404C170.345 132.404 170.831 132.274 171.413 132.112C172.384 131.82 172.449 131.852 172.417 132.726C172.385 133.373 172.191 133.697 171.706 133.827C170.832 134.054 170.703 134.054 170.444 133.796Z" fill="white"/>
<path d="M169.246 133.052C169.246 132.826 169.343 132.728 169.472 132.825C169.569 132.955 169.57 133.149 169.473 133.278C169.343 133.376 169.246 133.279 169.246 133.052Z" fill="white"/>
<path d="M172.87 132.531C172.967 131.981 173.969 131.171 174.196 131.43C174.293 131.527 174.456 131.915 174.553 132.336C174.78 132.983 174.683 133.048 173.777 133.049C173 133.049 172.773 132.92 172.87 132.531Z" fill="white"/>
<path d="M157.271 132.511C157.271 132.35 157.432 132.026 157.594 131.767C157.852 131.378 157.917 131.41 157.918 132.025C157.918 132.414 157.789 132.737 157.595 132.738C157.433 132.738 157.271 132.641 157.271 132.511Z" fill="white"/>
<path d="M158.241 131.799C158.24 130.892 158.92 130.601 159.438 131.28C159.762 131.765 159.762 131.927 159.439 132.154C158.759 132.575 158.241 132.446 158.241 131.799Z" fill="white"/>
<path d="M168.079 131.37C167.496 130.723 167.496 130.691 168.046 130.885C168.37 131.014 168.791 131.111 168.953 131.111C169.115 131.11 169.244 131.337 169.244 131.596C169.245 132.275 168.792 132.211 168.079 131.37Z" fill="white"/>
<path d="M161.121 131.343C159.728 130.276 159.532 127.882 160.827 127.881C161.701 127.88 162.511 129.239 162.382 130.501C162.286 131.666 161.898 131.925 161.121 131.343Z" fill="white"/>
<path d="M169.989 131.531C170.118 131.433 170.312 131.433 170.442 131.53C170.539 131.66 170.442 131.757 170.215 131.757C169.989 131.757 169.892 131.66 169.989 131.531Z" fill="white"/>
<path d="M174.875 130.264C174.972 129.973 175.068 129.682 175.068 129.617C175.068 129.552 175.23 129.487 175.392 129.487C175.586 129.487 175.716 129.778 175.716 130.134C175.716 130.523 175.49 130.782 175.199 130.782C174.843 130.782 174.746 130.621 174.875 130.264Z" fill="white"/>
<path d="M157.916 130.181C157.916 129.436 158.594 128.206 158.983 128.206C159.662 128.205 159.178 130.277 158.466 130.407C158.175 130.472 157.916 130.375 157.916 130.181Z" fill="white"/>
<path d="M165.197 129.819L164.226 129.593L165.1 129.366C166.006 129.106 166.653 129.3 166.654 129.85C166.654 130.174 166.622 130.174 165.197 129.819Z" fill="white"/>
<path d="M164.064 128.266C164.063 126.94 164.807 126.745 165.488 127.909C165.941 128.686 165.974 128.847 165.553 128.848C165.294 128.848 164.873 128.945 164.582 129.043C164.194 129.205 164.064 129.011 164.064 128.266Z" fill="white"/>
<path d="M169.696 128.715C168.239 128.069 167.299 126.355 167.297 124.316C167.296 122.859 167.425 122.503 168.298 121.693C168.848 121.175 169.398 120.754 169.56 120.754C170.272 120.753 172.895 123.243 173.77 124.796L174.775 126.575L173.708 127.709C172.479 129.004 171.12 129.361 169.696 128.715Z" fill="white"/>
<path d="M162.931 127.879C162.833 127.717 162.898 127.555 163.06 127.555C163.254 127.555 163.416 127.717 163.416 127.879C163.416 128.073 163.352 128.202 163.287 128.202C163.19 128.202 163.028 128.073 162.931 127.879Z" fill="white"/>
<path d="M158.691 127.365C158.788 127.073 158.884 126.782 158.884 126.717C158.884 126.652 159.176 126.587 159.532 126.587C160.341 126.587 160.373 127.104 159.565 127.558C158.691 128.012 158.465 127.98 158.691 127.365Z" fill="white"/>
<path d="M161.247 126.974C160.502 126.878 160.276 126.457 160.761 126.165C160.89 126.068 161.473 125.906 162.055 125.776C162.929 125.581 163.091 125.646 163.091 126.196C163.092 126.876 162.412 127.167 161.247 126.974Z" fill="white"/>
<path d="M163.738 125.872C163.738 125.483 163.77 125.257 163.835 125.321C163.867 125.386 164.126 125.71 164.353 126.033C164.742 126.486 164.71 126.583 164.257 126.583C163.933 126.584 163.739 126.325 163.738 125.872Z" fill="white"/>
<path d="M159.207 125.649C159.207 125.455 159.368 125.228 159.53 125.131C159.724 125.033 159.854 125.163 159.854 125.422C159.854 125.713 159.725 125.94 159.531 125.94C159.369 125.94 159.207 125.811 159.207 125.649Z" fill="white"/>
<path d="M160.404 125.162C160.145 124.515 162.442 123.802 162.831 124.416C163.123 124.934 162.832 125.161 161.602 125.42C160.858 125.583 160.534 125.518 160.404 125.162Z" fill="white"/>
<path d="M163.446 124.124C163.445 123.768 163.542 123.671 163.64 123.93C163.737 124.157 163.705 124.448 163.608 124.545C163.511 124.675 163.413 124.48 163.446 124.124Z" fill="white"/>
<path d="M160.694 123.609C161.082 122.896 162.214 121.73 162.505 121.73C162.829 121.73 162.862 123.251 162.539 123.445C162.377 123.51 161.859 123.673 161.374 123.802C160.662 123.965 160.5 123.933 160.694 123.609Z" fill="white"/>
<path d="M163.283 122.862C162.926 121.892 163.087 121.471 163.864 121.341C164.673 121.178 164.673 121.178 164.156 122.182C163.51 123.477 163.542 123.477 163.283 122.862Z" fill="white"/>
<path d="M163.087 120.921C163.087 120.856 163.734 120.402 164.543 119.949C165.513 119.365 166.193 119.171 166.678 119.3C167.261 119.493 167.099 119.623 165.676 120.304C164.091 121.017 163.088 121.277 163.087 120.921Z" fill="white"/>
<path d="M181.026 92.2324C180.151 90.9709 178.305 88.9335 176.977 87.7047C175.649 86.4759 174.775 85.4733 175.034 85.4731C175.746 85.4726 181.184 86.957 182.544 87.5385C183.677 88.0231 183.709 88.0878 183.419 89.0913C183.257 89.674 183.129 91.1304 183.13 92.3279C183.131 93.5577 183.035 94.5287 182.905 94.5288C182.743 94.5289 181.933 93.4939 181.026 92.2324Z" fill="white"/>
<path d="M115.243 190.313C113.915 189.635 113.624 189.247 111.938 185.914C109.507 181.191 109.442 180.091 111.742 182.775C112.649 183.843 114.754 186.042 116.406 187.659C119.224 190.375 119.353 190.569 118.415 190.44C117.735 190.344 117.476 190.409 117.638 190.667C118.027 191.25 116.797 191.089 115.243 190.313Z" fill="white"/>
<path fill-rule="evenodd" clip-rule="evenodd" d="M169.527 249.235C169.258 248.597 169.556 247.862 170.194 247.593L170.891 247.296C177.668 244.391 181.558 242.645 184.2 239.876C186.842 237.107 187.155 233.043 187.65 230.57C187.785 229.891 189.323 231.082 190.002 231.218C190.68 231.353 191.121 232.014 190.985 232.692C190.39 235.666 188.784 238.502 186.197 241.195C183.618 243.878 178.625 246.756 171.169 249.902C170.531 250.171 169.796 249.873 169.527 249.235Z" fill="#00160A"/>
<path fill-rule="evenodd" clip-rule="evenodd" d="M200.082 120.08C200.677 119.725 201.446 119.92 201.801 120.514C205.35 126.467 207.255 133.273 207.261 140.356C207.277 161.814 189.896 179.223 168.438 179.24C162.736 179.244 157.204 178.019 152.138 175.68C151.51 175.39 149.135 173.077 151.526 174.017C153.917 174.956 163.166 177.061 168.502 177.057C188.576 177.042 202.764 160.434 202.749 140.36C202.743 133.731 200.088 127.85 199.648 121.798C199.597 121.097 199.488 120.434 200.082 120.08Z" fill="#00160A"/>
<path fill-rule="evenodd" clip-rule="evenodd" d="M76.0291 215.035C76.4717 214.503 77.2612 213.427 77.7934 213.87C79.9767 215.686 82.3067 217.79 84.7976 218.194C87.3896 218.615 90.4642 218.612 94.0175 218.18C94.7046 218.096 95.3295 218.585 95.4132 219.272C95.4969 219.959 95.0078 220.584 94.3207 220.668C90.5473 221.128 87.2404 221.13 84.3958 220.668C81.4501 220.19 78.71 218.895 76.1914 216.8C75.6592 216.357 75.5865 215.567 76.0291 215.035Z" fill="#00160A"/>
<path d="M102.606 171.164C100.987 169.871 97.5212 166.054 94.8971 162.691C93.5364 160.912 92.0125 157.288 91.1035 153.632C90.6815 151.982 90.2596 150.493 90.1623 150.299C90.0328 150.137 89.5131 147.84 88.9932 145.187C88.2136 141.433 88.3769 140.223 87.6913 135.733C87.401 133.832 87.1385 132.32 87.1385 132.32L87.9791 131.239C88.464 130.591 89.0773 129.519 89.3042 128.907C90.3376 126.12 97.9362 117.379 98.163 117.606C98.2277 117.67 97.97 119.192 97.5183 120.972C97.099 122.752 96.5833 125.439 96.3579 126.96C96.0362 129.485 95.907 129.776 94.9044 130.618C93.6431 131.687 91.2508 135.12 91.2514 135.832C91.2521 136.803 92.708 136.154 94.2279 134.567L95.78 132.948L95.7814 134.728C95.7823 135.893 95.5566 136.961 95.1366 137.803C94.3287 139.389 94.33 141.072 95.1078 142.366C95.4966 143.013 95.8539 144.566 96.0818 146.411C97.0916 154.76 99.2333 162.008 102.896 169.287C103.804 171.098 104.517 172.586 104.484 172.586C104.42 172.587 103.578 171.94 102.606 171.164Z" fill="white"/>
<path fill-rule="evenodd" clip-rule="evenodd" d="M237.287 191.027L239.618 192.061C240.101 192.284 245.434 194.841 251.839 197.912C262.166 202.864 275.281 209.153 275.361 209.153C275.49 209.153 276.096 207.748 276.232 206.11C276.553 202.583 277.747 197.792 279.136 194.457C279.782 192.968 280.298 191.107 280.298 190.945C280.298 190.871 279.772 190.659 278.91 190.313C277.884 189.9 276.384 189.296 274.73 188.506C266.571 184.596 250.609 176.615 248.634 175.419C246.692 174.288 246.303 174.191 246.304 174.935C246.305 175.906 244.334 180.406 242.815 182.835C242.007 184.162 240.423 186.558 239.291 188.145L237.287 191.027ZM274.806 203.328C275.734 203.865 274.127 204.656 273.739 204.785C271.453 204.981 268.76 204.553 266.553 203.27C265.399 202.453 256.314 197.415 250.287 194.073C247.532 192.545 245.416 191.372 244.989 191.118C243.63 190.31 242.334 189.437 242.108 189.179C241.427 188.305 242.074 187.916 243.984 188.077C245.132 188.173 272.8 202.168 274.806 203.328Z" fill="white"/>
<path d="M214.052 193.958C213.21 193.667 212.304 193.021 211.72 192.277L210.749 191.08L214.177 187.679C219.448 182.497 223.327 176.835 226.817 170.521C227.981 168.417 231.437 159.93 231.857 158.991C232.503 157.632 232.988 157.113 234.379 156.335C236.029 155.363 237.906 155.038 238.715 155.588C240.27 156.622 240.272 159.891 238.723 165.523C237.013 171.706 234.718 176.142 229.966 182.521C229.222 183.493 227.832 185.403 226.83 186.731C224.147 190.293 222.4 192.01 220.039 193.338C217.71 194.635 216.35 194.798 214.052 193.958Z" fill="white"/>
<path d="M226.252 193.204L225.572 192.525C225.572 192.525 236.841 178.185 238.858 172.902C240.398 168.871 241.304 167.728 242.529 167.727C243.214 167.726 243.774 167.882 244.033 168.27C244.486 168.95 244.924 169.791 244.343 172.671C243.376 177.333 241.89 180.408 237.429 187.046C236.394 188.568 235.069 190.252 234.487 190.835C233.128 192.098 230.071 193.395 228.292 193.688C227.159 193.851 226.835 193.786 226.252 193.204Z" fill="white"/>
<path fill-rule="evenodd" clip-rule="evenodd" d="M245.189 178.203C245.84 176.709 246.304 175.407 246.304 174.935C246.303 174.191 246.692 174.288 248.634 175.419C250.61 176.615 266.571 184.596 274.73 188.506C277.773 189.96 280.298 190.783 280.298 190.945C280.298 191.107 244.498 179.787 245.189 178.203Z" fill="#E7EAEE"/>
<path fill-rule="evenodd" clip-rule="evenodd" d="M134.459 180.136C130.347 177.453 124.128 171.147 121.115 166.651C116.805 160.182 113.952 153.258 112.555 145.815C111.547 140.411 111.573 132.094 112.572 127.271C113.604 122.351 114.928 118.596 117.287 113.836C120.034 108.332 122.943 104.285 127.309 99.9122C131.59 95.6244 112.562 113.357 117.311 145.055C121.119 171.618 137.4 182.07 134.459 180.136Z" fill="#E7EAEE"/>
</svg>
