<svg width="23" height="23" viewBox="0 0 23 23" fill="none" xmlns="http://www.w3.org/2000/svg">
<path fill-rule="evenodd" clip-rule="evenodd" d="M6.5205 0H16.491C20.3895 0 23 2.737 23 6.808V16.2046C23 20.263 20.3895 23 16.491 23H6.5205C2.622 23 0 20.263 0 16.2046V6.808C0 2.737 2.622 0 6.5205 0ZM10.8444 14.9384L16.3069 9.47594C16.6979 9.08494 16.6979 8.45244 16.3069 8.04994C15.9159 7.65894 15.2719 7.65894 14.8809 8.04994L10.1314 12.7994L8.11893 10.7869C7.72793 10.3959 7.08393 10.3959 6.69293 10.7869C6.30193 11.1779 6.30193 11.8104 6.69293 12.2129L9.42993 14.9384C9.62543 15.1339 9.87843 15.2259 10.1314 15.2259C10.3959 15.2259 10.6489 15.1339 10.8444 14.9384Z" fill="white"/>
</svg>
